<?xml version="1.0" encoding="utf-8"?>
<!-- Generator: Adobe Illustrator 16.0.0, SVG Export Plug-In . SVG Version: 6.00 Build 0)  -->
<!DOCTYPE svg PUBLIC "-//W3C//DTD SVG 1.1//EN" "http://www.w3.org/Graphics/SVG/1.1/DTD/svg11.dtd">
<svg version="1.1" id="Layer_1" xmlns="http://www.w3.org/2000/svg" xmlns:xlink="http://www.w3.org/1999/xlink" x="0px" y="0px"
	 width="432.674px" height="283px" viewBox="0 0 432.674 283" enable-background="new 0 0 432.674 283" xml:space="preserve">
<g>
	<rect y="16.24" fill="none" width="184.496" height="46.512"/>
	<path fill="#7AC943" d="M54.319,20.716h1.866l2,9.28l1.641-5.927h1.61l1.661,5.927l2-9.28h1.866L64.275,32.2h-1.805l-1.835-6.296
		L58.81,32.2h-1.805L54.319,20.716z"/>
	<path fill="#7AC943" d="M70.202,20.757h4.83v9.977h3.743V32.2h-9.372v-1.466h3.743v-8.511h-2.943V20.757z M73.145,16.296h1.887
		v2.379h-1.887V16.296z"/>
	<path fill="#7AC943" d="M90.382,25.084V32.2h-1.897v-7.116c0-1.032-0.181-1.791-0.543-2.276s-0.93-0.728-1.702-0.728
		c-0.882,0-1.561,0.313-2.036,0.938c-0.475,0.626-0.712,1.523-0.712,2.692V32.2h-1.887V20.716h1.887v1.723
		c0.335-0.656,0.79-1.153,1.364-1.492c0.574-0.338,1.254-0.507,2.041-0.507c1.169,0,2.042,0.384,2.62,1.154
		C90.093,22.361,90.382,23.525,90.382,25.084z"/>
	<path fill="#7AC943" d="M101.046,22.182v-5.937h1.887V32.2h-1.887v-1.446c-0.314,0.567-0.733,1-1.256,1.297
		c-0.523,0.297-1.126,0.446-1.81,0.446c-1.388,0-2.48-0.539-3.276-1.615c-0.797-1.077-1.195-2.562-1.195-4.456
		c0-1.866,0.4-3.331,1.2-4.394c0.8-1.062,1.89-1.594,3.271-1.594c0.69,0,1.299,0.149,1.825,0.446
		C100.332,21.183,100.745,21.615,101.046,22.182z M95.499,26.468c0,1.463,0.232,2.567,0.697,3.312s1.152,1.118,2.061,1.118
		s1.601-0.376,2.076-1.128s0.713-1.853,0.713-3.302c0-1.456-0.238-2.558-0.713-3.307c-0.475-0.748-1.167-1.123-2.076-1.123
		s-1.596,0.373-2.061,1.118S95.499,25.005,95.499,26.468z"/>
	<path fill="#7AC943" d="M111.208,20.439c1.593,0,2.811,0.516,3.655,1.548s1.267,2.526,1.267,4.481c0,1.962-0.42,3.458-1.261,4.486
		c-0.841,1.029-2.061,1.543-3.661,1.543c-1.593,0-2.81-0.514-3.65-1.543c-0.841-1.028-1.261-2.524-1.261-4.486
		c0-1.955,0.42-3.449,1.261-4.481S109.615,20.439,111.208,20.439z M111.208,22.039c-0.957,0-1.682,0.373-2.174,1.118
		s-0.738,1.849-0.738,3.312c0,1.456,0.246,2.558,0.738,3.307c0.492,0.748,1.217,1.123,2.174,1.123c0.964,0,1.692-0.375,2.184-1.123
		c0.492-0.749,0.738-1.851,0.738-3.307c0-1.463-0.246-2.567-0.738-3.312S112.171,22.039,111.208,22.039z"/>
	<path fill="#7AC943" d="M117.534,20.716h1.866l2,9.28l1.641-5.927h1.61l1.661,5.927l2-9.28h1.866L127.491,32.2h-1.805l-1.835-6.296
		l-1.825,6.296h-1.805L117.534,20.716z"/>
</g>
<g>
	<rect x="275.194" y="110.264" fill="none" width="184.496" height="46.512"/>
	<path fill="#7AC943" d="M285.971,119.107v7.116h-1.897v-7.116c0-1.032-0.181-1.791-0.543-2.276s-0.93-0.728-1.702-0.728
		c-0.882,0-1.561,0.313-2.036,0.938c-0.475,0.626-0.712,1.523-0.712,2.692v6.491h-1.887v-15.955h1.887v6.193
		c0.335-0.656,0.79-1.153,1.364-1.492c0.574-0.338,1.254-0.507,2.041-0.507c1.169,0,2.042,0.384,2.62,1.154
		C285.682,116.385,285.971,117.549,285.971,119.107z"/>
	<path fill="#7AC943" d="M291.078,114.78h4.83v9.977h3.743v1.466h-9.372v-1.466h3.743v-8.511h-2.943V114.78z M294.021,110.32h1.887
		v2.379h-1.887V110.32z"/>
	<path fill="#7AC943" d="M310.458,115.139v1.846c-0.54-0.314-1.083-0.55-1.63-0.708s-1.104-0.236-1.671-0.236
		c-0.854,0-1.492,0.138-1.913,0.416c-0.42,0.276-0.63,0.699-0.63,1.266c0,0.513,0.157,0.896,0.472,1.148s1.097,0.499,2.348,0.738
		l0.759,0.144c0.937,0.178,1.646,0.533,2.128,1.066c0.481,0.533,0.723,1.227,0.723,2.082c0,1.135-0.403,2.022-1.21,2.661
		s-1.928,0.958-3.363,0.958c-0.567,0-1.162-0.06-1.784-0.179c-0.622-0.12-1.295-0.299-2.02-0.539v-1.948
		c0.704,0.362,1.377,0.634,2.02,0.815c0.643,0.182,1.251,0.272,1.825,0.272c0.834,0,1.48-0.169,1.938-0.507
		c0.458-0.339,0.687-0.812,0.687-1.42c0-0.875-0.837-1.48-2.512-1.815l-0.082-0.021l-0.708-0.144
		c-1.087-0.212-1.88-0.569-2.379-1.071c-0.499-0.503-0.749-1.188-0.749-2.056c0-1.101,0.373-1.95,1.118-2.548
		c0.745-0.598,1.808-0.897,3.189-0.897c0.615,0,1.207,0.056,1.774,0.169C309.354,114.744,309.911,114.914,310.458,115.139z"/>
	<path fill="#7AC943" d="M319.419,111.479v3.261h4.286v1.466h-4.286v6.234c0,0.848,0.161,1.439,0.482,1.774s0.882,0.502,1.682,0.502
		h2.123v1.507h-2.307c-1.415,0-2.413-0.284-2.994-0.851s-0.872-1.545-0.872-2.933v-6.234h-3.066v-1.466h3.066v-3.261H319.419z"/>
	<path fill="#7AC943" d="M332.083,114.462c1.593,0,2.811,0.516,3.655,1.548s1.267,2.526,1.267,4.481c0,1.962-0.42,3.458-1.261,4.486
		c-0.841,1.029-2.061,1.543-3.661,1.543c-1.593,0-2.81-0.514-3.65-1.543c-0.841-1.028-1.261-2.524-1.261-4.486
		c0-1.955,0.42-3.449,1.261-4.481S330.49,114.462,332.083,114.462z M332.083,116.062c-0.957,0-1.682,0.373-2.174,1.118
		s-0.738,1.849-0.738,3.312c0,1.456,0.246,2.558,0.738,3.307c0.492,0.748,1.217,1.123,2.174,1.123c0.964,0,1.692-0.375,2.184-1.123
		c0.492-0.749,0.738-1.851,0.738-3.307c0-1.463-0.246-2.567-0.738-3.312S333.047,116.062,332.083,116.062z"/>
	<path fill="#7AC943" d="M350.253,117.108c-0.403-0.314-0.813-0.543-1.23-0.687s-0.875-0.215-1.374-0.215
		c-1.176,0-2.075,0.369-2.697,1.107s-0.933,1.805-0.933,3.199v5.711h-1.897v-11.484h1.897v2.246
		c0.314-0.813,0.798-1.437,1.451-1.872c0.653-0.434,1.427-0.651,2.323-0.651c0.465,0,0.899,0.058,1.302,0.174
		s0.79,0.297,1.159,0.543V117.108z"/>
	<path fill="#7AC943" d="M359.851,122.532c-0.314,0.8-0.714,1.853-1.2,3.158c-0.677,1.805-1.131,2.905-1.364,3.302
		c-0.314,0.533-0.708,0.933-1.179,1.2s-1.022,0.4-1.651,0.4h-1.518v-1.579h1.118c0.554,0,0.988-0.161,1.302-0.482
		s0.714-1.152,1.2-2.492l-4.44-11.3h2l3.404,8.982l3.353-8.982h2L359.851,122.532z"/>
</g>
<g>
	<rect x="275.194" y="249.798" fill="none" width="184.496" height="46.511"/>
	<path fill="#7AC943" d="M285.171,254.673v1.846c-0.54-0.314-1.083-0.55-1.63-0.708c-0.547-0.156-1.104-0.235-1.671-0.235
		c-0.854,0-1.492,0.138-1.913,0.415c-0.42,0.277-0.63,0.699-0.63,1.267c0,0.513,0.157,0.896,0.472,1.148s1.097,0.499,2.348,0.738
		l0.759,0.144c0.937,0.178,1.646,0.533,2.128,1.066c0.481,0.533,0.723,1.227,0.723,2.082c0,1.135-0.403,2.021-1.21,2.66
		c-0.807,0.64-1.928,0.959-3.363,0.959c-0.567,0-1.162-0.061-1.784-0.18s-1.295-0.299-2.02-0.538v-1.948
		c0.704,0.362,1.377,0.635,2.02,0.814c0.643,0.182,1.251,0.272,1.825,0.272c0.834,0,1.48-0.169,1.938-0.507
		c0.458-0.34,0.687-0.812,0.687-1.421c0-0.875-0.837-1.479-2.512-1.815l-0.082-0.02l-0.708-0.145
		c-1.087-0.211-1.88-0.568-2.379-1.07c-0.499-0.504-0.749-1.188-0.749-2.057c0-1.101,0.373-1.949,1.118-2.549
		c0.745-0.598,1.808-0.896,3.189-0.896c0.615,0,1.207,0.057,1.774,0.17C284.067,254.277,284.624,254.447,285.171,254.673z"/>
	<path fill="#7AC943" d="M298.716,265.173c-0.506,0.294-1.027,0.515-1.564,0.661s-1.085,0.221-1.646,0.221
		c-1.777,0-3.167-0.533-4.168-1.6c-1.002-1.066-1.502-2.543-1.502-4.43s0.5-3.363,1.502-4.43c1.001-1.066,2.391-1.6,4.168-1.6
		c0.554,0,1.094,0.072,1.62,0.215c0.526,0.145,1.056,0.366,1.589,0.667v1.979c-0.499-0.445-1-0.766-1.502-0.965
		c-0.502-0.197-1.071-0.297-1.707-0.297c-1.183,0-2.092,0.383-2.728,1.148s-0.954,1.859-0.954,3.281
		c0,1.415,0.319,2.508,0.958,3.275c0.639,0.77,1.547,1.154,2.723,1.154c0.656,0,1.244-0.101,1.764-0.303
		c0.52-0.201,1.001-0.514,1.446-0.938V265.173z"/>
	<path fill="#7AC943" d="M312.323,256.642c-0.403-0.314-0.813-0.544-1.23-0.687c-0.417-0.145-0.875-0.216-1.374-0.216
		c-1.176,0-2.075,0.369-2.697,1.107s-0.933,1.805-0.933,3.199v5.712h-1.897v-11.484h1.897v2.245
		c0.314-0.813,0.798-1.437,1.451-1.872c0.653-0.434,1.427-0.65,2.323-0.65c0.465,0,0.899,0.059,1.302,0.174
		c0.403,0.117,0.79,0.298,1.159,0.544V256.642z"/>
	<path fill="#7AC943" d="M324.607,259.072v0.922h-8.172v0.062c-0.055,1.564,0.244,2.689,0.897,3.373s1.574,1.025,2.764,1.025
		c0.602,0,1.23-0.096,1.887-0.287s1.357-0.482,2.102-0.871v1.876c-0.718,0.294-1.41,0.515-2.077,0.661
		c-0.666,0.146-1.311,0.221-1.933,0.221c-1.784,0-3.179-0.535-4.184-1.605c-1.005-1.068-1.507-2.544-1.507-4.424
		c0-1.832,0.492-3.295,1.477-4.389s2.297-1.641,3.938-1.641c1.463,0,2.616,0.496,3.46,1.486
		C324.103,256.475,324.553,257.67,324.607,259.072z M322.721,258.518c-0.082-0.793-0.371-1.478-0.866-2.055
		c-0.496-0.578-1.208-0.867-2.138-0.867c-0.909,0-1.658,0.301-2.246,0.902s-0.909,1.278-0.964,2.03L322.721,258.518z"/>
	<path fill="#7AC943" d="M337.25,259.072v0.922h-8.172v0.062c-0.055,1.564,0.244,2.689,0.897,3.373s1.574,1.025,2.764,1.025
		c0.602,0,1.23-0.096,1.887-0.287s1.357-0.482,2.102-0.871v1.876c-0.718,0.294-1.41,0.515-2.077,0.661
		c-0.666,0.146-1.311,0.221-1.933,0.221c-1.784,0-3.179-0.535-4.184-1.605c-1.005-1.068-1.507-2.544-1.507-4.424
		c0-1.832,0.492-3.295,1.477-4.389s2.297-1.641,3.938-1.641c1.463,0,2.616,0.496,3.46,1.486
		C336.746,256.475,337.196,257.67,337.25,259.072z M335.364,258.518c-0.082-0.793-0.371-1.478-0.866-2.055
		c-0.496-0.578-1.208-0.867-2.138-0.867c-0.909,0-1.658,0.301-2.246,0.902s-0.909,1.278-0.964,2.03L335.364,258.518z"/>
	<path fill="#7AC943" d="M349.186,258.641v7.117h-1.897v-7.117c0-1.031-0.181-1.791-0.543-2.275
		c-0.362-0.486-0.93-0.729-1.702-0.729c-0.882,0-1.561,0.312-2.036,0.938c-0.475,0.627-0.712,1.523-0.712,2.692v6.491h-1.887
		v-11.484h1.887v1.723c0.335-0.656,0.79-1.154,1.364-1.492s1.254-0.508,2.041-0.508c1.169,0,2.042,0.385,2.62,1.154
		C348.897,255.918,349.186,257.082,349.186,258.641z"/>
</g>
<g>
	<rect x="275.194" y="17.24" fill="none" width="184.496" height="46.512"/>
	<path fill="#7AC943" d="M283.992,23.182v-5.937h1.887V33.2h-1.887v-1.446c-0.314,0.567-0.733,1-1.256,1.297
		c-0.523,0.297-1.126,0.446-1.81,0.446c-1.388,0-2.48-0.539-3.276-1.615c-0.797-1.077-1.195-2.562-1.195-4.456
		c0-1.866,0.4-3.331,1.2-4.394c0.8-1.062,1.89-1.594,3.271-1.594c0.69,0,1.299,0.149,1.825,0.446
		C283.278,22.183,283.691,22.615,283.992,23.182z M278.445,27.468c0,1.463,0.232,2.567,0.697,3.312s1.152,1.118,2.061,1.118
		s1.601-0.376,2.076-1.128s0.713-1.853,0.713-3.302c0-1.456-0.238-2.558-0.713-3.307c-0.475-0.748-1.167-1.123-2.076-1.123
		s-1.596,0.373-2.061,1.118S278.445,26.005,278.445,27.468z"/>
	<path fill="#7AC943" d="M294.154,21.439c1.593,0,2.811,0.516,3.655,1.548s1.267,2.526,1.267,4.481c0,1.962-0.42,3.458-1.261,4.486
		c-0.841,1.029-2.061,1.543-3.661,1.543c-1.593,0-2.81-0.514-3.65-1.543c-0.841-1.028-1.261-2.524-1.261-4.486
		c0-1.955,0.42-3.449,1.261-4.481S292.561,21.439,294.154,21.439z M294.154,23.039c-0.957,0-1.682,0.373-2.174,1.118
		s-0.738,1.849-0.738,3.312c0,1.456,0.246,2.558,0.738,3.307c0.492,0.748,1.217,1.123,2.174,1.123c0.964,0,1.692-0.375,2.184-1.123
		c0.492-0.749,0.738-1.851,0.738-3.307c0-1.463-0.246-2.567-0.738-3.312S295.118,23.039,294.154,23.039z"/>
	<path fill="#7AC943" d="M311.36,32.616c-0.506,0.294-1.027,0.515-1.564,0.662c-0.537,0.146-1.085,0.22-1.646,0.22
		c-1.777,0-3.167-0.533-4.168-1.6c-1.002-1.066-1.502-2.543-1.502-4.43s0.5-3.363,1.502-4.43c1.001-1.066,2.391-1.6,4.168-1.6
		c0.554,0,1.094,0.072,1.62,0.215s1.056,0.366,1.589,0.667V24.3c-0.499-0.444-1-0.766-1.502-0.964
		c-0.502-0.198-1.071-0.297-1.707-0.297c-1.183,0-2.092,0.383-2.728,1.148s-0.954,1.859-0.954,3.281
		c0,1.415,0.319,2.507,0.958,3.276c0.639,0.77,1.547,1.154,2.723,1.154c0.656,0,1.244-0.101,1.764-0.302s1.001-0.515,1.446-0.938
		V32.616z"/>
	<path fill="#7AC943" d="M315.123,28.853v-7.116h1.887v7.116c0,1.032,0.183,1.791,0.548,2.276s0.932,0.728,1.697,0.728
		c0.889,0,1.569-0.313,2.041-0.938c0.472-0.626,0.708-1.523,0.708-2.692v-6.491h1.897V33.2h-1.897v-1.723
		c-0.335,0.663-0.792,1.166-1.369,1.507s-1.252,0.513-2.025,0.513c-1.176,0-2.051-0.384-2.625-1.154
		C315.41,31.575,315.123,30.411,315.123,28.853z"/>
	<path fill="#7AC943" d="M332.698,22.885c0.232-0.492,0.528-0.856,0.887-1.092c0.359-0.236,0.792-0.354,1.297-0.354
		c0.923,0,1.574,0.357,1.954,1.072c0.379,0.714,0.569,2.059,0.569,4.035V33.2h-1.723v-6.573c0-1.62-0.091-2.626-0.272-3.02
		c-0.181-0.393-0.511-0.589-0.989-0.589c-0.547,0-0.921,0.21-1.123,0.63c-0.202,0.421-0.302,1.414-0.302,2.979V33.2h-1.723v-6.573
		c0-1.641-0.097-2.652-0.292-3.035c-0.194-0.383-0.545-0.574-1.051-0.574c-0.499,0-0.846,0.21-1.041,0.63
		c-0.194,0.421-0.292,1.414-0.292,2.979V33.2h-1.712V21.716h1.712V22.7c0.226-0.41,0.508-0.723,0.846-0.938
		c0.339-0.215,0.723-0.323,1.154-0.323c0.52,0,0.952,0.12,1.297,0.359C332.238,22.037,332.507,22.399,332.698,22.885z"/>
	<path fill="#7AC943" d="M349.894,26.515v0.923h-8.172v0.062c-0.055,1.565,0.244,2.69,0.897,3.374s1.574,1.025,2.764,1.025
		c0.602,0,1.23-0.096,1.887-0.287s1.357-0.482,2.102-0.872v1.876c-0.718,0.294-1.41,0.515-2.077,0.662
		c-0.666,0.146-1.311,0.22-1.933,0.22c-1.784,0-3.179-0.535-4.184-1.605c-1.005-1.069-1.507-2.544-1.507-4.424
		c0-1.832,0.492-3.295,1.477-4.389s2.297-1.641,3.938-1.641c1.463,0,2.616,0.496,3.46,1.487S349.839,25.113,349.894,26.515z
		 M348.007,25.961c-0.082-0.793-0.371-1.478-0.866-2.056c-0.496-0.578-1.208-0.867-2.138-0.867c-0.909,0-1.658,0.301-2.246,0.902
		s-0.909,1.278-0.964,2.03L348.007,25.961z"/>
	<path fill="#7AC943" d="M361.83,26.084V33.2h-1.897v-7.116c0-1.032-0.181-1.791-0.543-2.276s-0.93-0.728-1.702-0.728
		c-0.882,0-1.561,0.313-2.036,0.938c-0.475,0.626-0.712,1.523-0.712,2.692V33.2h-1.887V21.716h1.887v1.723
		c0.335-0.656,0.79-1.153,1.364-1.492c0.574-0.338,1.254-0.507,2.041-0.507c1.169,0,2.042,0.384,2.62,1.154
		C361.541,23.361,361.83,24.525,361.83,26.084z"/>
	<path fill="#7AC943" d="M369.992,18.455v3.261h4.286v1.466h-4.286v6.234c0,0.848,0.161,1.439,0.482,1.774s0.882,0.502,1.682,0.502
		h2.123V33.2h-2.307c-1.415,0-2.413-0.284-2.994-0.851s-0.872-1.545-0.872-2.933v-6.234h-3.066v-1.466h3.066v-3.261H369.992z"/>
</g>
<g>
	<rect x="275.194" y="203.285" fill="none" width="184.497" height="46.512"/>
	<path fill="#7AC943" d="M285.971,212.129v7.116h-1.897v-7.116c0-1.032-0.181-1.791-0.543-2.276s-0.93-0.728-1.702-0.728
		c-0.882,0-1.561,0.312-2.036,0.938c-0.475,0.626-0.712,1.523-0.712,2.691v6.491h-1.887v-11.484h1.887v1.723
		c0.335-0.656,0.79-1.153,1.364-1.492c0.574-0.338,1.254-0.507,2.041-0.507c1.169,0,2.042,0.384,2.62,1.153
		C285.682,209.406,285.971,210.57,285.971,212.129z"/>
	<path fill="#7AC943" d="M298.696,212.693v6.552h-1.897v-1.702c-0.403,0.684-0.911,1.188-1.522,1.513
		c-0.612,0.324-1.355,0.487-2.23,0.487c-1.169,0-2.102-0.33-2.799-0.99c-0.697-0.659-1.046-1.543-1.046-2.65
		c0-1.278,0.429-2.249,1.287-2.912s2.118-0.994,3.779-0.994h2.533v-0.298c-0.007-0.916-0.239-1.581-0.697-1.994
		s-1.189-0.62-2.194-0.62c-0.643,0-1.292,0.092-1.948,0.276s-1.295,0.454-1.917,0.81v-1.887c0.697-0.266,1.365-0.466,2.004-0.6
		c0.639-0.133,1.26-0.199,1.861-0.199c0.95,0,1.762,0.14,2.436,0.42c0.673,0.28,1.218,0.701,1.635,1.262
		c0.26,0.342,0.444,0.764,0.554,1.266C298.642,210.935,298.696,211.688,298.696,212.693z M295.036,213.473h-0.625
		c-1.101,0-1.93,0.193-2.487,0.579s-0.835,0.962-0.835,1.728c0,0.69,0.208,1.227,0.625,1.609s0.995,0.574,1.733,0.574
		c1.039,0,1.856-0.359,2.451-1.081s0.896-1.718,0.902-2.989v-0.42H295.036z"/>
	<path fill="#7AC943" d="M301.506,207.761h1.958l3.333,9.639l3.343-9.639h1.958l-4.081,11.484h-2.43L301.506,207.761z"/>
	<path fill="#7AC943" d="M316.364,207.802h4.83v9.978h3.743v1.466h-9.372v-1.466h3.743v-8.512h-2.943V207.802z M319.307,203.342
		h1.887v2.379h-1.887V203.342z"/>
	<path fill="#7AC943" d="M336.451,218.507c0,1.723-0.407,3.028-1.22,3.917s-2.01,1.333-3.589,1.333c-0.52,0-1.063-0.048-1.63-0.144
		s-1.135-0.236-1.702-0.42v-1.867c0.67,0.314,1.278,0.547,1.825,0.697s1.049,0.227,1.507,0.227c1.019,0,1.76-0.277,2.225-0.831
		s0.697-1.433,0.697-2.636v-0.082v-1.281c-0.301,0.643-0.711,1.121-1.23,1.436s-1.152,0.472-1.897,0.472
		c-1.34,0-2.41-0.536-3.209-1.61c-0.8-1.072-1.2-2.508-1.2-4.307c0-1.805,0.4-3.243,1.2-4.316s1.87-1.609,3.209-1.609
		c0.738,0,1.364,0.146,1.876,0.44s0.93,0.749,1.251,1.364v-1.487h1.887V218.507z M334.564,213.41c0-1.414-0.23-2.489-0.692-3.225
		c-0.461-0.734-1.133-1.102-2.015-1.102c-0.923,0-1.627,0.367-2.112,1.102c-0.485,0.735-0.728,1.811-0.728,3.225
		c0,1.416,0.244,2.494,0.733,3.235c0.489,0.742,1.198,1.112,2.128,1.112c0.868,0,1.533-0.372,1.994-1.117
		C334.334,215.896,334.564,214.818,334.564,213.41z"/>
	<path fill="#7AC943" d="M349.269,212.693v6.552h-1.897v-1.702c-0.403,0.684-0.911,1.188-1.522,1.513
		c-0.612,0.324-1.355,0.487-2.23,0.487c-1.169,0-2.102-0.33-2.799-0.99c-0.697-0.659-1.046-1.543-1.046-2.65
		c0-1.278,0.429-2.249,1.287-2.912s2.118-0.994,3.779-0.994h2.533v-0.298c-0.007-0.916-0.239-1.581-0.697-1.994
		s-1.189-0.62-2.194-0.62c-0.643,0-1.292,0.092-1.948,0.276s-1.295,0.454-1.917,0.81v-1.887c0.697-0.266,1.365-0.466,2.004-0.6
		c0.639-0.133,1.26-0.199,1.861-0.199c0.95,0,1.762,0.14,2.436,0.42c0.673,0.28,1.218,0.701,1.635,1.262
		c0.26,0.342,0.444,0.764,0.554,1.266C349.214,210.935,349.269,211.688,349.269,212.693z M345.608,213.473h-0.625
		c-1.101,0-1.93,0.193-2.487,0.579s-0.835,0.962-0.835,1.728c0,0.69,0.208,1.227,0.625,1.609s0.995,0.574,1.733,0.574
		c1.039,0,1.856-0.359,2.451-1.081s0.896-1.718,0.902-2.989v-0.42H345.608z"/>
	<path fill="#7AC943" d="M357.349,204.5v3.261h4.286v1.466h-4.286v6.234c0,0.848,0.161,1.439,0.482,1.774s0.882,0.503,1.682,0.503
		h2.123v1.507h-2.307c-1.415,0-2.413-0.284-2.994-0.851c-0.581-0.568-0.872-1.545-0.872-2.934v-6.234h-3.066v-1.466h3.066V204.5
		H357.349z"/>
	<path fill="#7AC943" d="M370.012,207.484c1.593,0,2.811,0.516,3.655,1.548s1.267,2.526,1.267,4.481c0,1.961-0.42,3.457-1.261,4.485
		c-0.841,1.029-2.061,1.544-3.661,1.544c-1.593,0-2.81-0.515-3.65-1.544c-0.841-1.028-1.261-2.524-1.261-4.485
		c0-1.955,0.42-3.449,1.261-4.481S368.419,207.484,370.012,207.484z M370.012,209.084c-0.957,0-1.682,0.372-2.174,1.117
		s-0.738,1.85-0.738,3.312c0,1.455,0.246,2.558,0.738,3.307c0.492,0.748,1.217,1.123,2.174,1.123c0.964,0,1.692-0.375,2.184-1.123
		c0.492-0.749,0.738-1.852,0.738-3.307c0-1.463-0.246-2.567-0.738-3.312S370.976,209.084,370.012,209.084z"/>
	<path fill="#7AC943" d="M388.182,210.129c-0.403-0.314-0.813-0.543-1.23-0.687s-0.875-0.216-1.374-0.216
		c-1.176,0-2.075,0.369-2.697,1.107s-0.933,1.805-0.933,3.199v5.712h-1.897v-11.484h1.897v2.245
		c0.314-0.812,0.798-1.437,1.451-1.871c0.653-0.434,1.427-0.65,2.323-0.65c0.465,0,0.899,0.058,1.302,0.174s0.79,0.297,1.159,0.543
		V210.129z"/>
</g>
<g>
	<rect x="275.194" y="63.752" fill="none" width="184.497" height="46.512"/>
	<path fill="#7AC943" d="M286.094,63.757v1.569h-2.143c-0.677,0-1.147,0.138-1.41,0.416c-0.263,0.276-0.395,0.767-0.395,1.471v1.015
		h3.948v1.466h-3.948v10.018h-1.887V69.694h-3.066v-1.466h3.066v-0.8c0-1.258,0.289-2.184,0.866-2.779s1.479-0.892,2.702-0.892
		H286.094z"/>
	<path fill="#7AC943" d="M299.68,70.596c-0.403-0.314-0.813-0.543-1.23-0.687s-0.875-0.215-1.374-0.215
		c-1.176,0-2.075,0.369-2.697,1.107s-0.933,1.805-0.933,3.199v5.711h-1.897V68.228h1.897v2.246c0.314-0.813,0.798-1.437,1.451-1.872
		c0.653-0.434,1.427-0.651,2.323-0.651c0.465,0,0.899,0.058,1.302,0.174s0.79,0.297,1.159,0.543V70.596z"/>
	<path fill="#7AC943" d="M311.339,73.16v6.552h-1.897V78.01c-0.403,0.684-0.911,1.188-1.522,1.513
		c-0.612,0.324-1.355,0.487-2.23,0.487c-1.169,0-2.102-0.33-2.799-0.99c-0.697-0.659-1.046-1.543-1.046-2.65
		c0-1.278,0.429-2.249,1.287-2.912s2.118-0.995,3.779-0.995h2.533v-0.297c-0.007-0.916-0.239-1.581-0.697-1.994
		s-1.189-0.621-2.194-0.621c-0.643,0-1.292,0.092-1.948,0.277s-1.295,0.455-1.917,0.81V68.75c0.697-0.267,1.365-0.466,2.004-0.6
		c0.639-0.133,1.26-0.2,1.861-0.2c0.95,0,1.762,0.14,2.436,0.42c0.673,0.28,1.218,0.701,1.635,1.261
		c0.26,0.342,0.444,0.764,0.554,1.266C311.284,71.401,311.339,72.155,311.339,73.16z M307.678,73.939h-0.625
		c-1.101,0-1.93,0.193-2.487,0.58s-0.835,0.962-0.835,1.728c0,0.69,0.208,1.227,0.625,1.61s0.995,0.574,1.733,0.574
		c1.039,0,1.856-0.36,2.451-1.082s0.896-1.718,0.902-2.989v-0.42H307.678z"/>
	<path fill="#7AC943" d="M320.055,69.396c0.232-0.492,0.528-0.856,0.887-1.092c0.359-0.236,0.792-0.354,1.297-0.354
		c0.923,0,1.574,0.357,1.954,1.072c0.379,0.714,0.569,2.059,0.569,4.035v6.655h-1.723v-6.573c0-1.62-0.091-2.626-0.272-3.02
		c-0.181-0.393-0.511-0.589-0.989-0.589c-0.547,0-0.921,0.21-1.123,0.63c-0.202,0.421-0.302,1.414-0.302,2.979v6.573h-1.723v-6.573
		c0-1.641-0.097-2.652-0.292-3.035c-0.194-0.383-0.545-0.574-1.051-0.574c-0.499,0-0.846,0.21-1.041,0.63
		c-0.194,0.421-0.292,1.414-0.292,2.979v6.573h-1.712V68.228h1.712v0.984c0.226-0.41,0.508-0.723,0.846-0.938
		c0.339-0.215,0.723-0.323,1.154-0.323c0.52,0,0.952,0.12,1.297,0.359C319.595,68.549,319.863,68.911,320.055,69.396z"/>
	<path fill="#7AC943" d="M337.25,73.026v0.923h-8.172v0.062c-0.055,1.565,0.244,2.69,0.897,3.374s1.574,1.025,2.764,1.025
		c0.602,0,1.23-0.096,1.887-0.287s1.357-0.482,2.102-0.872v1.876c-0.718,0.294-1.41,0.515-2.077,0.662
		c-0.666,0.146-1.311,0.22-1.933,0.22c-1.784,0-3.179-0.535-4.184-1.605c-1.005-1.069-1.507-2.544-1.507-4.424
		c0-1.832,0.492-3.295,1.477-4.389s2.297-1.641,3.938-1.641c1.463,0,2.616,0.496,3.46,1.487S337.196,71.625,337.25,73.026z
		 M335.364,72.473c-0.082-0.793-0.371-1.478-0.866-2.056c-0.496-0.578-1.208-0.867-2.138-0.867c-0.909,0-1.658,0.301-2.246,0.902
		s-0.909,1.278-0.964,2.03L335.364,72.473z"/>
	<path fill="#7AC943" d="M348.386,68.627v1.846c-0.54-0.314-1.083-0.55-1.63-0.708s-1.104-0.236-1.671-0.236
		c-0.854,0-1.492,0.138-1.913,0.416c-0.42,0.276-0.63,0.699-0.63,1.266c0,0.513,0.157,0.896,0.472,1.148s1.097,0.499,2.348,0.738
		l0.759,0.144c0.937,0.178,1.646,0.533,2.128,1.066c0.481,0.533,0.723,1.227,0.723,2.082c0,1.135-0.403,2.022-1.21,2.661
		s-1.928,0.958-3.363,0.958c-0.567,0-1.162-0.06-1.784-0.179c-0.622-0.12-1.295-0.299-2.02-0.539v-1.948
		c0.704,0.362,1.377,0.634,2.02,0.815c0.643,0.182,1.251,0.272,1.825,0.272c0.834,0,1.48-0.169,1.938-0.507
		c0.458-0.339,0.687-0.812,0.687-1.42c0-0.875-0.837-1.48-2.512-1.815l-0.082-0.021l-0.708-0.144
		c-1.087-0.212-1.88-0.569-2.379-1.071c-0.499-0.503-0.749-1.188-0.749-2.056c0-1.101,0.373-1.95,1.118-2.548
		c0.745-0.598,1.808-0.897,3.189-0.897c0.615,0,1.207,0.056,1.774,0.169C347.282,68.232,347.839,68.402,348.386,68.627z"/>
</g>
<g>
	<rect x="275.194" y="156.775" fill="none" width="184.496" height="46.51"/>
	<path fill="#7AC943" d="M282.566,168.582c0,0.848,0.155,1.487,0.466,1.918s0.771,0.646,1.379,0.646h2.205v1.589h-2.389
		c-1.128,0-2.001-0.36-2.62-1.082c-0.619-0.721-0.928-1.745-0.928-3.071v-10.387h-3.025v-1.477h4.912V168.582z"/>
	<path fill="#7AC943" d="M294.153,160.974c1.593,0,2.811,0.516,3.655,1.548s1.267,2.526,1.267,4.481c0,1.961-0.42,3.457-1.261,4.485
		c-0.841,1.029-2.061,1.544-3.661,1.544c-1.593,0-2.81-0.515-3.65-1.544c-0.841-1.028-1.261-2.524-1.261-4.485
		c0-1.956,0.42-3.449,1.261-4.481S292.561,160.974,294.153,160.974z M294.153,162.574c-0.957,0-1.682,0.373-2.174,1.118
		s-0.738,1.849-0.738,3.312c0,1.455,0.246,2.558,0.738,3.307c0.492,0.748,1.217,1.123,2.174,1.123c0.964,0,1.692-0.375,2.184-1.123
		c0.492-0.749,0.738-1.852,0.738-3.307c0-1.463-0.246-2.567-0.738-3.312S295.117,162.574,294.153,162.574z"/>
	<path fill="#7AC943" d="M311.359,172.15c-0.506,0.295-1.027,0.516-1.564,0.662s-1.085,0.221-1.646,0.221
		c-1.777,0-3.167-0.533-4.168-1.6c-1.002-1.066-1.502-2.543-1.502-4.43c0-1.887,0.5-3.364,1.502-4.43
		c1.001-1.066,2.391-1.6,4.168-1.6c0.554,0,1.094,0.072,1.62,0.215s1.056,0.366,1.589,0.667v1.979c-0.499-0.444-1-0.766-1.502-0.964
		c-0.502-0.198-1.071-0.297-1.707-0.297c-1.183,0-2.092,0.383-2.728,1.148s-0.954,1.859-0.954,3.282
		c0,1.414,0.319,2.507,0.958,3.275c0.639,0.77,1.547,1.154,2.723,1.154c0.656,0,1.244-0.102,1.764-0.303s1.001-0.515,1.446-0.938
		V172.15z"/>
	<path fill="#7AC943" d="M323.982,166.184v6.552h-1.897v-1.702c-0.403,0.684-0.911,1.188-1.522,1.513
		c-0.612,0.324-1.355,0.487-2.23,0.487c-1.169,0-2.102-0.33-2.799-0.99c-0.697-0.659-1.046-1.543-1.046-2.65
		c0-1.278,0.429-2.249,1.287-2.912s2.118-0.995,3.779-0.995h2.533v-0.297c-0.007-0.916-0.239-1.581-0.697-1.994
		s-1.189-0.621-2.194-0.621c-0.643,0-1.292,0.092-1.948,0.277s-1.295,0.455-1.917,0.81v-1.887c0.697-0.267,1.365-0.466,2.004-0.6
		c0.639-0.133,1.26-0.2,1.861-0.2c0.95,0,1.762,0.14,2.436,0.42c0.673,0.28,1.218,0.701,1.635,1.261
		c0.26,0.342,0.444,0.764,0.554,1.266C323.927,164.425,323.982,165.178,323.982,166.184z M320.321,166.963h-0.625
		c-1.101,0-1.93,0.193-2.487,0.579s-0.835,0.962-0.835,1.728c0,0.69,0.208,1.227,0.625,1.609s0.995,0.574,1.733,0.574
		c1.039,0,1.856-0.359,2.451-1.081s0.896-1.718,0.902-2.989v-0.42H320.321z"/>
	<path fill="#7AC943" d="M332.062,157.99v3.261h4.286v1.466h-4.286v6.234c0,0.848,0.161,1.439,0.482,1.774s0.882,0.503,1.682,0.503
		h2.123v1.507h-2.307c-1.415,0-2.413-0.284-2.994-0.851c-0.581-0.568-0.872-1.545-0.872-2.934v-6.234h-3.066v-1.466h3.066v-3.261
		H332.062z"/>
	<path fill="#7AC943" d="M341.649,161.292h4.83v9.978h3.743v1.466h-9.372v-1.466h3.743v-8.511h-2.943V161.292z M344.592,156.832
		h1.887v2.379h-1.887V156.832z"/>
	<path fill="#7AC943" d="M357.369,160.974c1.593,0,2.811,0.516,3.655,1.548s1.267,2.526,1.267,4.481c0,1.961-0.42,3.457-1.261,4.485
		c-0.841,1.029-2.061,1.544-3.661,1.544c-1.593,0-2.81-0.515-3.65-1.544c-0.841-1.028-1.261-2.524-1.261-4.485
		c0-1.956,0.42-3.449,1.261-4.481S355.776,160.974,357.369,160.974z M357.369,162.574c-0.957,0-1.682,0.373-2.174,1.118
		s-0.738,1.849-0.738,3.312c0,1.455,0.246,2.558,0.738,3.307c0.492,0.748,1.217,1.123,2.174,1.123c0.964,0,1.692-0.375,2.184-1.123
		c0.492-0.749,0.738-1.852,0.738-3.307c0-1.463-0.246-2.567-0.738-3.312S358.333,162.574,357.369,162.574z"/>
	<path fill="#7AC943" d="M374.472,165.619v7.116h-1.897v-7.116c0-1.032-0.181-1.791-0.543-2.276s-0.93-0.728-1.702-0.728
		c-0.882,0-1.561,0.313-2.036,0.938c-0.475,0.626-0.712,1.523-0.712,2.691v6.491h-1.887v-11.484h1.887v1.723
		c0.335-0.656,0.79-1.153,1.364-1.492c0.574-0.338,1.254-0.507,2.041-0.507c1.169,0,2.042,0.384,2.62,1.154
		C374.183,162.896,374.472,164.061,374.472,165.619z"/>
</g>
<g>
	<g>
		<line fill="none" stroke="#3FA9F5" stroke-width="2" stroke-miterlimit="10" x1="138.674" y1="25" x2="257.674" y2="25"/>
		<g>
			<path fill="#3FA9F5" d="M269.674,25c-5.68,2.107-12.727,5.703-17.095,9.512L256.02,25l-3.44-9.51
				C256.948,19.299,263.995,22.895,269.674,25z"/>
		</g>
	</g>
</g>
<g>
	<g>
		<line fill="none" stroke="#3FA9F5" stroke-width="2" stroke-miterlimit="10" x1="197.674" y1="71" x2="255.674" y2="71"/>
		<g>
			<path fill="#3FA9F5" d="M267.674,71c-5.68,2.107-12.727,5.703-17.095,9.512L254.02,71l-3.44-9.51
				C254.948,65.299,261.995,68.895,267.674,71z"/>
		</g>
	</g>
</g>
<g>
	<g>
		<line fill="none" stroke="#3FA9F5" stroke-width="2" stroke-miterlimit="10" x1="197.674" y1="121" x2="255.674" y2="121"/>
		<g>
			<path fill="#3FA9F5" d="M267.674,121c-5.68,2.107-12.727,5.703-17.095,9.512l3.44-9.512l-3.44-9.51
				C254.948,115.299,261.995,118.895,267.674,121z"/>
		</g>
	</g>
</g>
<g>
	<g>
		<line fill="none" stroke="#3FA9F5" stroke-width="2" stroke-miterlimit="10" x1="196.674" y1="167" x2="254.674" y2="167"/>
		<g>
			<path fill="#3FA9F5" d="M266.925,167c-5.68,2.107-12.727,5.703-17.095,9.512l3.44-9.512l-3.44-9.51
				C254.198,161.299,261.245,164.895,266.925,167z"/>
		</g>
	</g>
</g>
<g>
	<g>
		<line fill="none" stroke="#3FA9F5" stroke-width="2" stroke-miterlimit="10" x1="197.674" y1="215" x2="255.674" y2="215"/>
		<g>
			<path fill="#3FA9F5" d="M267.674,215c-5.68,2.107-12.727,5.703-17.095,9.512l3.44-9.512l-3.44-9.51
				C254.948,209.299,261.995,212.895,267.674,215z"/>
		</g>
	</g>
</g>
<g>
	<g>
		<line fill="none" stroke="#3FA9F5" stroke-width="2" stroke-miterlimit="10" x1="195.674" y1="261" x2="253.674" y2="261"/>
		<g>
			<path fill="#3FA9F5" d="M266.175,261c-5.68,2.107-12.727,5.703-17.095,9.512l3.44-9.512l-3.44-9.51
				C253.448,255.299,260.495,258.895,266.175,261z"/>
		</g>
	</g>
</g>
<line fill="none" stroke="#3FA9F5" stroke-width="2" stroke-miterlimit="10" x1="196.674" y1="261" x2="196.674" y2="25"/>
<g>
</g>
<g>
</g>
<g>
</g>
<g>
</g>
<g>
</g>
<g>
</g>
<g>
</g>
<g>
</g>
<g>
</g>
<g>
</g>
<g>
</g>
<g>
</g>
<g>
</g>
<g>
</g>
<g>
</g>
<g>
</g>
</svg>
